# xmcd
#
# Track frame offsets:
#	150
#	20730
#	40212
#	61250
#	84864
#	103577
#	120201
#	137052
#	156353
#	175786
#	193365
#	215658
#	231238
#	246222
#	268432
#	291446
#
# Disc length: 4154 seconds
#
# Revision: 1
# Processed by: cddbd v1.5.2PL0 Copyright (c) Steve Scherf et al.
# Submitted via: EZCDAudioConverter 1.3.4.1
#
DISCID=ef103810
DTITLE=John Martyn - The Island Years - Disc 17
DYEAR=2013
DGENRE=
TTITLE0=Live On Love
TTITLE1=The River
TTITLE2=Income Town
TTITLE3=Send Me One Line
TTITLE4=Deny This Love
TTITLE5=Hold Me
TTITLE6=Upo
TTITLE7=No. 9
TTITLE8=The Apprentice
TTITLE9=Lifeline
TTITLE10=The Moment
TTITLE11=Patterns In The Rain
TTITLE12=Patterns In The Rain [Island 25th Birthday Party]
TTITLE13=The Apprentice [Live]
TTITLE14=Send Me One Line [Live]
TTITLE15=The Moment [Live]
EXTD=
EXTT0=
EXTT1=
EXTT2=
EXTT3=
EXTT4=
EXTT5=
EXTT6=
EXTT7=
EXTT8=
EXTT9=
EXTT10=
EXTT11=
EXTT12=
EXTT13=
EXTT14=
EXTT15=
PLAYORDER=
